# xmcd
#
# Track frame offsets:
#	150
#	14042
#	28105
#	41805
#	53852
#	70940
#	84847
#	99225
#	117332
#	131677
#	148890
#
# Disc length: 2230 seconds
#
# Revision: 0
# Processed by: cddbd v1.5.1PL0 Copyright (c) Steve Scherf et al.
# Submitted via: dBpowerAMP V4.0
#
DISCID=9b08b40b
DTITLE=Steven Craig Harding - Steven Craig Harding
DYEAR=1900
DGENRE=
TTITLE0=You Against Me
TTITLE1=Tonight My Heart Rides Again
TTITLE2=If It Wasn't For You
TTITLE3=Armed And Dangerous
TTITLE4=Somebody's Baby
TTITLE5=Half Way To Memphis
TTITLE6=Somewhere
TTITLE7=I'm The Only Thing
TTITLE8=Somethin' I Know Nothin' About 
TTITLE9=A Woman Like You
TTITLE10=Love Has A Life Of It's Own
EXTD=
EXTT0=
EXTT1=
EXTT2=
EXTT3=
EXTT4=
EXTT5=
EXTT6=
EXTT7=
EXTT8=
EXTT9=
EXTT10=
PLAYORDER=
